<?xml version="1.0" encoding="utf-8"?>
<!-- Generator: Adobe Illustrator 22.0.0, SVG Export Plug-In . SVG Version: 6.00 Build 0)  -->
<svg version="1.1" id="圖層_1" xmlns="http://www.w3.org/2000/svg" xmlns:xlink="http://www.w3.org/1999/xlink" x="0px" y="0px"
	 viewBox="0 0 19 18.6" style="enable-background:new 0 0 19 18.6;" xml:space="preserve">
<style type="text/css">
	.st0{fill:#0275D8;}
</style>
<path class="st0" d="M14.5,18.6h-10c-2.2,0-4-1.8-4-4v-10c0-2.2,1.8-4,4-4h10c2.2,0,4,1.8,4,4v10C18.5,16.8,16.7,18.6,14.5,18.6z
	 M6,4.6c-0.8,0-1.5,0.7-1.5,1.5S5.2,7.6,6,7.6s1.5-0.7,1.5-1.5S6.8,4.6,6,4.6z M16.5,12.6l-4-4l-5,5l-2-2l-3,3c0,1.1,0.9,2,2,2h10
	c1.1,0,2-0.9,2-2V12.6z"/>
</svg>
