<?xml version="1.0" encoding="utf-8"?>
<!-- Generator: Adobe Illustrator 22.0.0, SVG Export Plug-In . SVG Version: 6.00 Build 0)  -->
<svg version="1.1"
	 id="圖層_1" xmlns:cc="http://creativecommons.org/ns#" xmlns:dc="http://purl.org/dc/elements/1.1/" xmlns:inkscape="http://www.inkscape.org/namespaces/inkscape" xmlns:rdf="http://www.w3.org/1999/02/22-rdf-syntax-ns#" xmlns:sodipodi="http://sodipodi.sourceforge.net/DTD/sodipodi-0.dtd" xmlns:svg="http://www.w3.org/2000/svg"
	 xmlns="http://www.w3.org/2000/svg" xmlns:xlink="http://www.w3.org/1999/xlink" x="0px" y="0px" viewBox="0 0 89 89"
	 style="enable-background:new 0 0 89 89;" xml:space="preserve">
<style type="text/css">
	.st0{fill:#BEE1FF;}
</style>
<path class="st0" d="M44.5,0.7C20.5,0.7,1,20.2,1,44.2s19.5,43.5,43.5,43.5S88,68.2,88,44.2S68.5,0.7,44.5,0.7z M30.5,28.4
	c3.6,0,6.7,3,6.7,6.7s-3,6.7-6.7,6.7s-6.7-3-6.7-6.7S26.8,28.4,30.5,28.4z M58.5,28.4c3.7,0,6.7,3,6.7,6.7s-3,6.7-6.7,6.7
	s-6.7-3-6.7-6.7S54.8,28.4,58.5,28.4z M64.4,55.3c1.1-0.1,2,0.8,2.1,1.9c0,0.5-0.1,0.9-0.4,1.3c-4.8,7.4-12.7,12.3-21.6,12.3
	c-9,0-16.9-4.9-21.7-12.3c-0.6-0.9-0.4-2.2,0.5-2.8c0.3-0.2,0.6-0.3,0.9-0.3c0.1,0,0.1,0,0.2,0c0.7,0,1.3,0.4,1.7,0.9
	c4.2,6.4,10.8,10.5,18.3,10.5s14.1-4.1,18.3-10.5C63.1,55.7,63.7,55.4,64.4,55.3z"/>
</svg>
